# xmcd
#
# Track frame offsets: 
#        150
#        11619
#        26382
#        38669
#        50956
#        64046
#        76068
#        90923
#        102204
#        115162
#        143781
#        157224
#        169904
#        182291
#        193883
#        208885
#
# Disc length: 2949 seconds
#
# Revision: 2
# Processed by: cddbd v1.5.1PL0 Copyright (c) Steve Scherf et al.
# Submitted via: ExactAudioCopy v0.95a5
#
DISCID=d10b8310
DTITLE=Various Artist - Dirty Blues [CD1]
DYEAR=2000
DGENRE=Blues
TTITLE0=Lightnin' Hopkins - Let Me Play With Your Poodle
TTITLE1=Memphis Minnie - If You See My Rooster (Please Run Him Home)
TTITLE2=Blind Boy Fuller - I Don't Want No Skinny Woman
TTITLE3=The Hokum Boys - Caught Us Doing It
TTITLE4=Georgia White - I'll Keep Sittin' On It (If I Can't Sell It)
TTITLE5=Robert Johnson - Phonograph Blues
TTITLE6=Lil Johnson - Press My Button, Ring My Bell
TTITLE7=The Harlem Hamfats - Garbage Man, The
TTITLE8=Bo Carter - Ants In My Pants
TTITLE9=Bessie Smith - Empty Bed Blues
TTITLE10=Roosevelt Sykes - Dirty Mother For You
TTITLE11=Victoria Spivey - Toothache Blues
TTITLE12=Mae Glover - Gas Man Blues
TTITLE13=Oscar's Chicago Swingers - I Wonder Who's Boogien' My Woogie 
TTITLE13=Now
TTITLE14=Ethel Waters - Shake That Thing
TTITLE15=Tampa Red's Hokum Jug Band - It's Tight Like That
EXTD=
EXTT0=
EXTT1=
EXTT2=
EXTT3=
EXTT4=
EXTT5=
EXTT6=
EXTT7=
EXTT8=
EXTT9=
EXTT10=
EXTT11=
EXTT12=
EXTT13=
EXTT14=
EXTT15=
PLAYORDER=
